#N canvas 631 98 450 300 10;
#X obj 189 73 bng 15 250 50 0 empty empty empty 17 7 0 10 -262144 -1
-1;
#X msg 233 82 3;
#X msg 286 99 4;
#X msg 321 71 8;
#X msg 304 47 7;
#X obj 79 107 bng 15 250 50 0 empty empty empty 17 7 0 10 -262144 -1
-1;
#X obj 210 221 dynamicTW;
#X obj 210 118 dynamicTW;
#X obj 110 160 dynamicTW;
#X connect 0 0 7 0;
#X connect 1 0 7 1;
#X connect 2 0 7 1;
#X connect 3 0 7 1;
#X connect 4 0 7 1;
#X connect 5 0 8 0;
